#!OML:ASF \\sashay\E\Suitcase\Project 1\Capture day 1\Session 1\Male1.ASF
:FULLY-SPECIFIED
:DEGREES
725
root 0.718715 17.0393 16.4854 0.186067 9.01884 3.56294
lowerback 9.7136 -1.88293 -5.5924
upperback 0.0746945 -3.08329 0.919012
thorax -5.02763 -1.37352 4.53302
lowerneck -18.9241 -1.20048 -1.21451
upperneck 19.8429 -1.18829 -0.495061
head 9.3898 -0.703167 -0.130546
rclavicle 6.21202e-015 -2.78299e-015
rhumerus -59.6907 -31.3073 -42.5354
rradius 12.1584
rwrist 10.9973
rhand -11.5586 13.0004
rfingers 7.12502
rthumb 14.4823 -16.4742
lclavicle 6.21202e-015 -2.78299e-015
lhumerus -37.6895 1.19017 78.7654
lradius 41.2183
lwrist -1.45924
lhand -3.35026 45.4368
lfingers 7.12502
lthumb 22.3778 74.1607
rfemur -27.9755 -6.29365 14.3399
rtibia 61.8277
rfoot -10.9805 -9.70022
rtoes 8.77365
lfemur -1.63403 -3.8051 -29.3356
ltibia 25.1064
lfoot -18.1305 -12.3036
ltoes 8.00129
726
root 0.712541 17.0595 16.624 0.359686 9.26367 3.67874
lowerback 8.78412 -1.86334 -5.73129
upperback 0.85874 -2.99343 0.90698
thorax -3.68744 -1.39285 4.51575
lowerneck -19.8897 -1.26007 -1.20349
upperneck 19.583 -1.27388 -0.429483
head 9.4744 -0.7335 -0.126468
rclavicle 2.1916e-014 -1.59028e-015
rhumerus -57.8665 -30.6689 -45.1045
rradius 12.1185
rwrist 8.41396
rhand -11.3956 12.1819
rfingers 7.12502
rthumb 14.6394 -17.2813
lclavicle 2.1916e-014 -1.59028e-015
lhumerus -35.8621 0.788147 78.9517
lradius 41.9552
lwrist -0.739827
lhand -3.36647 45.1018
lfingers 7.12502
lthumb 22.3622 73.8275
rfemur -28.2379 -6.16115 14.2201
rtibia 59.5833
rfoot -11.8174 -10.5441
rtoes 9.95333
lfemur -1.13612 -3.93941 -29.3073
ltibia 24.5739
lfoot -17.2705 -13.2479
ltoes 16.6478
727
root 0.707941 17.0149 16.7583 0.502327 9.46192 3.7983
lowerback 9.17054 -1.86135 -5.73505
upperback 0.503026 -3.02766 0.850602
thorax -4.27526 -1.38074 4.49305
lowerneck -19.2339 -1.43743 -1.64424
upperneck 19.6109 -1.49149 -0.0354258
head 9.37352 -0.822956 0.0571351
rclavicle -4.62174e-015 -1.66979e-014
rhumerus -59.116 -30.5704 -44.0694
rradius 12.5134
rwrist 8.74484
rhand -11.0474 12.0464
rfingers 7.12502
rthumb 14.9749 -17.3922
lclavicle -4.62174e-015 -1.66979e-014
lhumerus -36.0998 0.0952307 79.0785
lradius 42.8764
lwrist 0.420923
lhand -3.8376 45.0869
lfingers 7.12502
lthumb 21.9099 73.8663
rfemur -28.7698 -5.98481 14.0721
rtibia 57.2565
rfoot -12.5679 -11.7194
rtoes 7.89613
lfemur -0.0886109 -3.55264 -29.4691
ltibia 23.8627
lfoot -19.1985 -11.2935
ltoes -3.56777
728
root 0.701331 17.0302 16.9023 0.577251 9.70419 3.91755
lowerback 9.38683 -1.87649 -5.83536
upperback 0.39427 -3.07749 0.796323
thorax -4.50276 -1.39285 4.51279
lowerneck -19.4346 -1.33419 -1.095
upperneck 20.0269 -1.42877 -0.375828
head 9.5476 -0.791831 -0.146046
rclavicle -3.25013e-014 8.74653e-015
rhumerus -59.3832 -30.1775 -44.1037
rradius 12.2966
rwrist 8.43569
rhand -11.1269 11.7258
rfingers 7.12502
rthumb 14.8983 -17.7185
lclavicle -3.25013e-014 8.74653e-015
lhumerus -36.0573 -0.16939 78.9945
lradius 44.0241
lwrist 0.9959
lhand -4.51318 44.8156
lfingers 7.12502
lthumb 21.2611 73.6695
rfemur -28.645 -5.63514 13.892
rtibia 54.5085
rfoot -13.9359 -12.8052
rtoes 6.20828
lfemur 0.554608 -3.85391 -29.5153
ltibia 23.4572
lfoot -18.8694 -11.7154
ltoes -1.68435
729
root 0.700048 17.0562 17.0406 0.86459 9.89781 4.03558
lowerback 8.93595 -1.88682 -5.84693
upperback 0.596016 -3.06209 0.698817
thorax -4.045 -1.40728 4.3859
lowerneck -19.5278 -1.49166 -1.44198
upperneck 19.684 -1.61563 -0.0597659
head 9.45103 -0.867722 -0.00392231
rclavicle 3.70236e-014 8.74653e-015
rhumerus -59.774 -30.8296 -43.4297
rradius 12.1439
rwrist 8.89535
rhand -11.1051 12.3355
rfingers 7.12502
rthumb 14.9192 -17.1072
lclavicle 3.70236e-014 8.74653e-015
lhumerus -35.1442 -0.880395 78.9881
lradius 44.4036
lwrist 1.75506
lhand -5.00136 44.2222
lfingers 7.12502
lthumb 20.7921 73.1282
rfemur -28.7897 -5.44062 13.6817
rtibia 51.5159
rfoot -13.9299 -13.7821
rtoes 9.71166
lfemur 0.97191 -4.04712 -29.5421
ltibia 22.9489
lfoot -18.2283 -12.3429
ltoes 3.95268
730
root 0.698311 17.0698 17.1795 1.05206 10.0145 4.1422
lowerback 8.78846 -1.93287 -6.01303
upperback 0.645223 -3.12588 0.766339
thorax -3.89089 -1.44246 4.54795
lowerneck -19.6365 -1.33645 -1.47232
upperneck 19.828 -1.39279 -0.0447623
head 9.52009 -0.764831 0.0356638
rclavicle -3.73715e-014 -3.97569e-016
rhumerus -59.9418 -30.9027 -42.9588
rradius 11.9684
rwrist 9.44084
rhand -11.0301 11.933
rfingers 7.12502
rthumb 14.9915 -17.5043
lclavicle -3.73715e-014 -3.97569e-016
lhumerus -34.7347 -0.794275 79.1205
lradius 45.167
lwrist 2.3302
lhand -5.24311 44.4565
lfingers 7.12502
lthumb 20.5598 73.3877
rfemur -28.6363 -5.24759 13.5292
rtibia 48.3157
rfoot -14.1352 -14.5814
rtoes 11.0578
lfemur 1.28344 -4.21855 -29.5877
ltibia 22.7791
lfoot -17.9206 -12.8082
ltoes 4.8632
731
root 0.696048 17.1053 17.3156 1.32407 10.0884 4.25739
lowerback 8.93217 -1.87772 -6.06159
upperback 0.424911 -3.07569 0.728669
thorax -4.20814 -1.39992 4.54473
lowerneck -19.2678 -1.64245 -2.01596
upperneck 19.6365 -1.76939 0.415015
head 9.39913 -0.928242 0.236059
rclavicle 4.72114e-015 -1.98785e-014
rhumerus -60.9258 -31.038 -41.9764
rradius 12.3155
rwrist 9.88588
rhand -10.6065 12.0687
rfingers 7.12502
rthumb 15.3995 -17.3377
lclavicle 4.72114e-015 -1.98785e-014
lhumerus -34.8039 -1.20516 79.159
lradius 46.2932
lwrist 3.34518
lhand -6.05892 44.1519
lfingers 7.12502
lthumb 19.7757 73.1658
rfemur -28.577 -4.87329 13.2891
rtibia 44.9594
rfoot -14.347 -15.6422
rtoes 12.0274
lfemur 1.586 -4.27086 -29.5922
ltibia 22.3838
lfoot -17.0929 -13.4699
ltoes 9.34268
732
root 0.689785 17.0943 17.4493 1.66827 10.255 4.3333
lowerback 8.30357 -1.95856 -6.12875
upperback 0.765989 -3.13745 0.713176
thorax -3.48879 -1.46464 4.52981
lowerneck -19.6484 -1.56381 -1.78521
upperneck 19.3536 -1.71058 0.374753
head 9.36539 -0.886569 0.190364
rclavicle -3.47873e-014 2.10712e-014
rhumerus -61.2117 -32.105 -40.9342
rradius 12.2001
rwrist 10.8825
rhand -10.4649 12.2326
rfingers 7.12502
rthumb 15.5359 -17.1633
lclavicle -3.47873e-014 2.10712e-014
lhumerus -33.9436 -1.16826 79.0651
lradius 47.263
lwrist 3.82781
lhand -5.24722 44.6362
lfingers 7.12502
lthumb 20.5559 73.5679
rfemur -28.4973 -4.54 13.1498
rtibia 41.6984
rfoot -14.1119 -16.3283
rtoes 13.1076
lfemur 1.97047 -4.57305 -29.5855
ltibia 21.8495
lfoot -16.6422 -13.5856
ltoes 12.7634
733
root 0.685855 17.1097 17.5884 1.89026 10.3373 4.44166
lowerback 9.15623 -1.84744 -6.07008
upperback -0.0667734 -3.07316 0.621597
thorax -4.85708 -1.3635 4.46371
lowerneck -18.5166 -1.72396 -1.85769
upperneck 19.5932 -1.90788 0.2535
head 9.24617 -1.00087 0.141479
rclavicle 1.963e-014 3.97569e-016
rhumerus -62.5662 -31.0381 -40.3638
rradius 12.2509
rwrist 10.6723
rhand -10.2176 12.25
rfingers 7.12502
rthumb 15.7741 -17.1273
lclavicle 1.963e-014 3.97569e-016
lhumerus -34.8562 -2.08345 79.2405
lradius 47.8301
lwrist 4.54993
lhand -5.74408 44.7714
lfingers 7.12502
lthumb 20.0784 73.7539
rfemur -28.3956 -4.22663 12.9449
rtibia 38.3173
rfoot -13.8196 -17.1654
rtoes 11.6679
lfemur 2.63076 -4.83802 -29.6501
ltibia 21.1861
lfoot -16.2832 -13.491
ltoes 10.3599
734
root 0.6838 17.0988 17.7245 2.17773 10.2529 4.48425
lowerback 8.77046 -1.92925 -6.12535
upperback 0.12672 -3.15332 0.662463
thorax -4.42176 -1.42276 4.52094
lowerneck -19.208 -1.71544 -2.12658
upperneck 19.7832 -1.88625 0.612567
head 9.44434 -0.96855 0.306773
rclavicle 2.66868e-014 0
rhumerus -61.6795 -30.7143 -41.2155
rradius 11.9478
rwrist 9.72708
rhand -10.4869 12.8824
rfingers 7.12502
rthumb 15.5148 -16.5152
lclavicle 2.66868e-014 0
lhumerus -34.1096 -1.66057 79.1101
lradius 48.3647
lwrist 5.22072
lhand -6.27919 44.7033
lfingers 7.12502
lthumb 19.564 73.7389
rfemur -28.3653 -3.81943 12.808
rtibia 35.0544
rfoot -13.3528 -17.4741
rtoes 13.0563
lfemur 3.3022 -4.75354 -29.655
ltibia 20.4465
lfoot -16.7985 -12.9878
ltoes 9.29119
735
root 0.673598 17.1056 17.8646 2.47739 10.3061 4.48003
lowerback 8.21411 -2.01688 -6.27281
upperback 0.387166 -3.23619 0.695393
thorax -3.81645 -1.49028 4.6095
lowerneck -19.2002 -1.64412 -2.33125
upperneck 19.2857 -1.8154 1.00494
head 9.27406 -0.905068 0.486698
rclavicle -2.33572e-014 -1.98785e-014
rhumerus -61.8662 -31.6067 -40.3106
rradius 11.9898
rwrist 10.744
rhand -9.9218 12.2624
rfingers 7.12502
rthumb 16.059 -17.0921
lclavicle -2.33572e-014 -1.98785e-014
lhumerus -33.5708 -1.49308 78.9836
lradius 49.5131
lwrist 5.50966
lhand -6.55705 44.2339
lfingers 7.12502
lthumb 19.2968 73.2965
rfemur -28.1464 -3.42637 12.7673
rtibia 31.6746
rfoot -13.2083 -17.8841
rtoes 12.189
lfemur 3.84667 -4.62409 -29.4551
ltibia 19.5887
lfoot -16.0687 -13.614
ltoes 8.4052
736
root 0.668168 17.1058 18.0081 2.83798 10.2364 4.4706
lowerback 7.55768 -1.99591 -6.2543
upperback 0.61958 -3.15288 0.732089
thorax -3.21491 -1.47766 4.58814
lowerneck -19.9363 -1.38297 -1.43752
upperneck 19.549 -1.48125 0.0370936
head 9.47733 -0.792587 0.0451968
rclavicle 5.40197e-014 -7.55382e-015
rhumerus -61.7728 -32.1008 -39.9492
rradius 11.8164
rwrist 11.1957
rhand -10.1318 12.7635
rfingers 7.12502
rthumb 15.8568 -16.6072
lclavicle 5.40197e-014 -7.55382e-015
lhumerus -32.9735 -1.83501 79.1074
lradius 50.1747
lwrist 6.54945
lhand -6.57428 44.8669
lfingers 7.12502
lthumb 19.2802 73.9311
rfemur -28.263 -3.20872 12.759
rtibia 28.5324
rfoot -13.1181 -17.5734
rtoes 13.5261
lfemur 4.46058 -4.7425 -29.3541
ltibia 18.698
lfoot -15.62 -13.607
ltoes 12.5359
737
root 0.659529 17.0934 18.1516 3.05413 10.2528 4.41907
lowerback 8.06185 -2.0537 -6.22439
upperback 0.0510392 -3.28211 0.70072
thorax -4.07999 -1.49606 4.59546
lowerneck -19.117 -1.38738 -1.625
upperneck 19.6237 -1.53389 0.408382
head 9.36036 -0.789918 0.202426
rclavicle 5.36719e-015 5.1684e-015
rhumerus -62.4248 -31.2053 -39.9588
rradius 12.0581
rwrist 10.8647
rhand -9.79867 12.1803
rfingers 7.12502
rthumb 16.1775 -17.1646
lclavicle 5.36719e-015 5.1684e-015
lhumerus -33.7876 -2.0983 78.9932
lradius 51.1091
lwrist 7.14003
lhand -6.81048 45.5629
lfingers 7.12502
lthumb 19.0531 74.6497
rfemur -27.9476 -2.59987 12.6155
rtibia 25.1424
rfoot -13.2061 -18.1501
rtoes 17.3772
lfemur 5.07012 -4.60358 -29.1521
ltibia 18.1425
lfoot -15.6601 -13.6747
ltoes 10.8112
738
root 0.649788 17.0804 18.2959 3.30366 10.2969 4.42431
lowerback 7.78729 -2.05181 -6.1687
upperback 0.0881758 -3.25643 0.660699
thorax -3.89533 -1.49278 4.50393
lowerneck -18.9509 0.197115 2.9647
upperneck 19.0925 0.471857 -4.63996
head 9.1455 -0.0840273 -2.02508
rclavicle -5.11871e-015 1.19271e-015
rhumerus -62.2023 -30.6424 -40.9914
rradius 12.3436
rwrist 9.21388
rhand -9.95221 12.6606
rfingers 7.12502
rthumb 16.0297 -16.6963
lclavicle -5.11871e-015 1.19271e-015
lhumerus -33.4406 -2.27896 78.9366
lradius 51.6219
lwrist 7.49548
lhand -7.90455 44.0013
lfingers 7.12502
lthumb 18.0007 73.1883
rfemur -27.7396 -2.45588 12.6339
rtibia 22.117
rfoot -13.0812 -18.0076
rtoes 14.1019
lfemur 5.66375 -4.3248 -29.0045
ltibia 17.398
lfoot -15.806 -13.7489
ltoes 8.9934
739
root 0.642742 17.105 18.4374 3.65619 10.3997 4.49984
lowerback 6.90353 -2.10742 -6.28941
upperback 0.553859 -3.2636 0.686677
thorax -2.9044 -1.54278 4.53791
lowerneck -19.4553 0.249872 3.17651
upperneck 18.8233 0.555581 -5.04957
head 9.14866 -0.080291 -2.19053
rclavicle -2.98177e-015 5.96354e-015
rhumerus -62.4402 -32.4585 -39.1496
rradius 11.8932
rwrist 11.2507
rhand -9.56875 12.6989
rfingers 7.12502
rthumb 16.3989 -16.6279
lclavicle -2.98177e-015 5.96354e-015
lhumerus -32.3654 -2.33144 78.9705
lradius 52.1388
lwrist 7.79054
lhand -7.17934 44.9157
lfingers 7.12502
lthumb 18.6983 74.037
rfemur -27.4662 -1.53443 12.2118
rtibia 19.0812
rfoot -13.3613 -17.9582
rtoes 12.5682
lfemur 5.97957 -4.44828 -28.8757
ltibia 16.9142
lfoot -14.9111 -14.5555
ltoes 8.72602
